<svg
    height="160px"
    width="520px"
    viewBox="0 0 52 16"
    version="1.1"
    xmlns="http://www.w3.org/2000/svg"
>
    <defs>
        <linearGradient id="Gradient" x1="0.7" x2="0.8" y1="1.0" y2="0.8">
            <stop stop-color="white" offset="0%" stop-opacity="1.0"/>
            <stop stop-color="white" offset="100%" stop-opacity="0"/>
        </linearGradient>
        <radialGradient id="Gradient2" cx="0.9" cy="1.0" r="0.7" fx="0.9" fy="0.9" fr="0">
            <stop offset="30%" stop-color="white" stop-opacity="1.0"/>
            <stop offset="60%" stop-color="white" stop-opacity="0.45"/>
            <stop offset="100%" stop-color="white" stop-opacity="0"/>
        </radialGradient>
    </defs>
    <g transform="translate(1.0 2)">
        <path fill="white" d="M6.47656 9.04688C6.47656 8.82812 6.44271 8.63281 6.375 8.46094C6.3125 8.28385 6.19531 8.125 6.02344 7.98438C5.85677 7.83854 5.61979 7.69792 5.3125 7.5625C5.01042 7.42188 4.61979 7.27604 4.14062 7.125C3.60938 6.95833 3.11458 6.77083 2.65625 6.5625C2.19792 6.35417 1.79427 6.11198 1.44531 5.83594C1.10156 5.5599 0.833333 5.24219 0.640625 4.88281C0.447917 4.51823 0.351562 4.09635 0.351562 3.61719C0.351562 3.14844 0.450521 2.72135 0.648438 2.33594C0.851562 1.95052 1.13802 1.61979 1.50781 1.34375C1.8776 1.0625 2.3125 0.846354 2.8125 0.695312C3.31771 0.544271 3.875 0.46875 4.48438 0.46875C5.32812 0.46875 6.05729 0.622396 6.67188 0.929688C7.29167 1.23698 7.77083 1.65365 8.10938 2.17969C8.44792 2.70573 8.61719 3.29688 8.61719 3.95312H6.47656C6.47656 3.59896 6.40104 3.28646 6.25 3.01562C6.10417 2.74479 5.88021 2.53125 5.57812 2.375C5.28125 2.21875 4.90625 2.14062 4.45312 2.14062C4.01562 2.14062 3.65104 2.20573 3.35938 2.33594C3.07292 2.46615 2.85677 2.64323 2.71094 2.86719C2.57031 3.09115 2.5 3.34115 2.5 3.61719C2.5 3.82552 2.54948 4.01302 2.64844 4.17969C2.7474 4.34115 2.89583 4.49479 3.09375 4.64062C3.29167 4.78125 3.53646 4.91406 3.82812 5.03906C4.125 5.15885 4.46875 5.27865 4.85938 5.39844C5.48438 5.58594 6.03125 5.79427 6.5 6.02344C6.97396 6.2526 7.36719 6.51302 7.67969 6.80469C7.9974 7.09635 8.23438 7.42448 8.39062 7.78906C8.55208 8.15365 8.63281 8.56771 8.63281 9.03125C8.63281 9.52083 8.53646 9.95833 8.34375 10.3438C8.15104 10.7292 7.875 11.0573 7.51562 11.3281C7.15625 11.599 6.72396 11.8047 6.21875 11.9453C5.71875 12.0859 5.15885 12.1562 4.53906 12.1562C3.98698 12.1562 3.4401 12.0833 2.89844 11.9375C2.36198 11.7865 1.875 11.5625 1.4375 11.2656C1 10.9635 0.651042 10.5833 0.390625 10.125C0.130208 9.66146 0 9.11979 0 8.5H2.15625C2.15625 8.85938 2.21354 9.16667 2.32812 9.42188C2.44792 9.67188 2.61458 9.8776 2.82812 10.0391C3.04688 10.1953 3.30208 10.3099 3.59375 10.3828C3.88542 10.4557 4.20052 10.4922 4.53906 10.4922C4.97656 10.4922 5.33594 10.4323 5.61719 10.3125C5.90365 10.1875 6.11719 10.0156 6.25781 9.79688C6.40365 9.57812 6.47656 9.32812 6.47656 9.04688Z"/>
    </g>
    <g transform="translate(6.0 2.0) scale(0.8)">
        <g stroke="black" stroke-width="0.00">
            <path fill="url(#Gradient)" d="M7.062 16.35 c -2 -4 -2 -6 1 -10" />
            <path fill="white" d="M7.012 16.16 A 25 25 0 0 1 7.052 7.1 h 1 A 15 15 0 0 0 8.92 15.61 Z"/>
            <path fill="#FFFFFF" d="M7 7.8 A 4 4 0 1 1 16.5 7.8 A 3 3 0 0 1 7.3 7.85Z"/>
            <path fill="url(#Gradient2)"
                  d="M7.14 6.8
               c -0.8 -2 -1.2 -4 -1 -6
               c 0.05 -0.5 1 -0.6 1.2 -0.6
               c 0.2 0 0.2 0.2 0.2 0.5
               c 0 0.1 0 4.0 0.2 4.8
               Z"
            />
            <circle fill="#FFFFFF" cx="8" cy="16" r="1"/>
            <circle fill="#80d6fa" cx="8" cy="16" r="0.85"/>

        </g>
        <g transform="translate(8 4) scale(0.015)">
            <g transform="translate(1 1)">
                <path fill="#80d6fa" d="M270.36,441.027c8.533-8.533,0-25.6-8.533-34.133c-8.533-8.533-37.547,22.187-25.6,34.133 C244.76,449.56,261.827,449.56,270.36,441.027L270.36,441.027z M395.8,319.853c8.533-25.6,42.667-34.133,25.6-51.2 c-17.067-17.067-51.2,0-59.733,0c-18.773,0-25.6,34.133-42.667,25.6c-17.067-8.533-34.133,8.533-17.067,17.067 c17.067,8.533,34.133,17.067,42.667,25.6S387.267,345.453,395.8,319.853L395.8,319.853z M495.64,217.453 c1.707,11.093,2.56,22.187,2.56,34.133c0,136.533-110.933,247.467-247.467,247.467c-33.28-20.48-78.507-53.76-59.733-98.133 c25.6-59.733,0-76.8-8.533-85.333c-8.533-8.533-25.6-8.533-17.067-34.133S191,264.387,191,221.72s-68.267-34.133-59.733-8.533 c8.533,25.6-8.533,59.733-42.667,85.333S45.934,255.853,63,238.787c11.947-11.947-26.453-17.92-58.027-16.213l5.12-30.72 C36.547,84.333,134.68,4.12,250.734,4.12c20.48,0,40.96,2.56,60.587,7.68c-5.12,23.893,11.947,34.133,11.947,42.667 s0,51.2-17.067,51.2c-17.067,0-59.733,25.6-42.667,51.2c17.067,25.6,25.6,59.733,42.667,51.2 c17.067-8.533,30.72-60.587,42.667-59.733c29.867,1.707,29.867,44.373,46.933,52.907c11.947,5.973,62.293,0,93.867-13.653 L495.64,217.453z"/>
                <path fill="#12bc45" d="M250.734,499.053c-30.72,0-59.733-7.68-59.733-7.68C83.48,464.92,3.267,367.64,3.267,251.587 c0-10.24,0.853-18.773,1.707-29.013c31.573-1.707,69.12,4.267,58.027,16.213c-17.067,17.067-8.533,85.333,25.6,59.733 s51.2-59.733,42.667-85.333c-8.533-25.6,59.733-34.133,59.733,8.533s-17.067,34.133-25.6,59.733s8.533,25.6,17.067,34.133 C191,324.12,216.6,341.187,191,400.92C172.227,445.294,217.454,478.574,250.734,499.053z M421.4,268.653 c17.067,17.067-17.067,25.6-25.6,51.2c-8.533,25.6-42.667,25.6-51.2,17.067s-25.6-17.067-42.667-25.6 c-17.067-8.533,0-25.6,17.067-17.067c17.067,8.533,23.893-25.6,42.667-25.6C370.2,268.653,404.334,251.587,421.4,268.653z M261.827,406.894c8.533,8.533,17.067,25.6,8.533,34.133c-8.533,8.533-25.6,8.533-34.133,0 C224.28,429.08,253.294,398.36,261.827,406.894z M489.667,186.733c-31.573,13.653-81.92,19.627-93.867,13.653 c-17.067-8.533-17.067-51.2-46.933-52.907c-11.947-0.853-25.6,51.2-42.667,59.733c-17.067,8.533-25.6-25.6-42.667-51.2 s25.6-51.2,42.667-51.2c17.067,0,17.067-42.667,17.067-51.2S306.2,34.84,312.174,10.947c15.36,4.267,33.28,11.093,33.28,11.093 C415.427,51.053,469.187,112.494,489.667,186.733z"/>
            </g>
            <path fill="#000000" d="M251.734,504.32c-0.853,0-1.707,0-2.56-0.853c-24.747-15.36-82.773-52.907-61.44-103.253 c22.187-52.053,4.267-69.12-5.12-78.507c-0.853-0.853-1.707-1.707-2.56-2.56c-1.707-1.707-4.267-3.413-6.827-4.267 c-7.68-5.12-18.773-11.093-11.093-34.133c3.413-11.093,8.533-16.213,12.8-20.48c6.827-6.827,11.947-12.8,11.947-37.547 c0-13.653-7.68-19.627-14.507-23.04c-11.947-5.12-28.16-2.56-34.133,3.413c-3.413,2.56-4.267,5.973-2.56,9.387 c9.387,27.307-8.533,63.147-44.373,90.453C74.24,315.733,64,307.2,60.587,302.08c-12.8-15.36-13.653-52.907,0-65.707 c0.853-0.853,0.853-0.853,0.853-0.853c-1.707-3.413-23.893-8.533-52.053-7.68c-0.853,8.533-0.853,16.213-0.853,24.747 c0,111.787,75.947,209.067,184.32,236.373c2.56,0.853,3.413,2.56,3.413,5.12c-0.853,2.56-2.56,3.413-5.12,3.413 C78.507,469.333,0,369.493,0,253.44c0-10.24,0.853-19.627,1.707-29.013v-0.853c0-0.853,0.853-0.853,0.853-1.707 c0.853-0.853,0.853-0.853,1.707-0.853H5.12c16.213-0.853,58.027,0,64,12.8c0.853,1.707,1.707,5.973-2.56,10.24 c-10.24,10.24-9.387,42.667,0.853,53.76c1.707,1.707,6.827,8.533,19.627-0.853c32.427-24.747,49.493-57.173,40.96-80.213 c-2.56-6.827-0.853-13.653,5.12-18.773c10.24-8.533,29.013-11.093,43.52-5.12c12.8,5.12,19.627,16.213,19.627,30.72 c0,28.16-7.68,35.84-14.507,43.52c-4.267,4.267-8.533,8.533-11.093,17.92c-5.12,16.213,0,18.773,7.68,23.893 c2.56,1.707,5.973,3.413,8.533,5.973c0.853,0.853,1.707,0.853,1.707,1.707c10.24,9.387,32.427,29.867,7.68,87.893 c-16.213,38.4,19.627,68.267,57.173,92.16c133.12-0.853,242.347-109.227,242.347-243.2c0-11.093-0.853-23.04-2.56-33.28 c0-2.56,1.707-4.267,3.413-5.12c2.56,0,4.267,1.707,5.12,3.413c1.707,11.093,2.56,23.04,2.56,34.987 C503.467,391.68,390.827,504.32,251.734,504.32z M254.294,452.267c-7.68,0-15.36-2.56-20.48-7.68 c-8.533-8.533-2.56-23.893,7.68-33.28c3.413-3.413,7.68-6.827,11.093-7.68c6.827-2.56,11.093,0,12.8,1.707 c10.24,10.24,19.627,29.013,8.533,40.107C269.654,449.707,261.974,452.267,254.294,452.267z M259.414,410.453 c-1.707,0-5.973,1.707-11.093,6.827c-4.267,4.267-6.827,8.533-8.533,12.8c-1.707,4.267-0.853,6.827,0.853,8.533 c6.827,6.827,21.333,6.827,28.16,0c5.973-5.973-0.853-20.48-8.533-28.16H259.414z M362.667,347.307 c-8.533,0-16.213-2.56-20.48-5.973c-7.68-7.68-24.747-16.213-41.813-24.747c-4.267-1.707-6.827-5.12-8.533-7.68 c-1.707-3.413-1.707-6.827,0-10.24c4.267-7.68,17.067-12.8,29.013-6.827c5.12,2.56,9.387-0.853,16.213-9.387 c5.973-7.68,13.653-16.213,23.893-16.213c1.707,0,5.12-0.853,9.387-2.56c14.507-4.267,39.253-11.093,53.76,3.413 c4.267,4.267,5.973,8.533,5.973,12.8c0,7.68-5.973,12.8-12.8,19.627c-6.827,5.973-14.507,13.653-17.067,23.04 c-4.267,11.947-13.653,20.48-27.307,23.893C370.347,347.307,366.08,347.307,362.667,347.307z M310.614,296.96 c-5.12,0-8.533,2.56-10.24,5.12c-0.853,0.853-0.853,1.707,0,2.56c0.853,1.707,2.56,2.56,4.267,3.413 c17.92,8.533,34.987,17.067,43.52,26.453c3.413,3.413,13.653,5.12,23.04,2.56c5.973-1.707,17.067-5.973,21.333-17.92 c4.267-11.947,12.8-20.48,19.627-26.453c5.12-5.12,10.24-10.24,10.24-13.653c0-1.707-0.853-4.267-3.413-5.973 c-11.093-11.093-31.573-5.12-45.227-1.707c-5.12,1.707-9.387,2.56-11.947,2.56c-6.827,0-11.947,5.973-17.92,12.8 c-6.827,7.68-14.507,17.92-26.453,11.947C315.734,297.813,313.174,296.96,310.614,296.96z M301.227,214.187 c-11.947,0-19.627-15.36-27.307-31.573c-4.267-7.68-8.533-16.213-12.8-23.04c-5.973-8.533-5.973-18.773-0.853-28.16 c9.387-17.067,34.987-29.867,46.933-29.867c5.973,0,12.8-11.947,12.8-46.933c0-1.707-1.707-4.267-3.413-7.68 c-4.267-6.827-10.24-17.067-8.533-31.573c-17.92-4.267-36.693-6.827-55.467-6.827C140.8,8.533,43.52,84.48,16.214,192.853 c-0.853,2.56-2.56,3.413-5.12,3.413c-2.56-0.853-3.413-2.56-3.413-5.12C35.84,78.507,135.68,0,251.734,0 c20.48,0,41.813,2.56,61.44,7.68c2.56,0.853,3.413,2.56,3.413,5.12c-3.413,13.653,2.56,22.187,6.827,29.867 c2.56,4.267,5.12,7.68,5.12,11.947c0,36.693-6.827,55.467-21.333,55.467c-10.24,0-32.427,11.093-40.107,25.6 c-3.413,6.827-3.413,12.8,0.853,19.627c5.12,7.68,9.387,16.213,13.653,23.893c10.24,20.48,16.213,29.013,23.893,25.6 c7.68-3.413,15.36-19.627,21.333-31.573c7.68-16.213,14.507-28.16,23.04-28.16l0,0c20.48,0.853,29.013,18.773,35.84,33.28 c4.267,8.533,7.68,17.067,13.653,19.627c9.387,5.12,54.613,0,87.04-11.947C465.92,115.2,413.014,56.32,344.747,28.16 c-2.56-0.853-3.413-3.413-2.56-5.973c0.853-2.56,3.413-3.413,5.973-2.56c72.533,29.867,127.147,92.16,147.627,167.253v0.853 c0,0.853,0,0.853,0,1.707c0,0.853-0.853,0.853-0.853,1.707l0,0l0,0L494.08,192c-31.573,13.653-83.627,20.48-97.28,13.653 c-8.533-4.267-12.8-13.653-17.067-23.893c-5.973-13.653-12.8-27.307-28.16-28.16c-3.413,0-11.093,15.36-15.36,23.893 c-7.68,15.36-15.36,30.72-25.6,35.84C306.347,213.333,303.787,214.187,301.227,214.187z"/>
        </g>
    </g>
    <g transform="translate(10.2 2)">
        <path fill="white" d="M12.1562 0V12H10.0859V0H12.1562ZM11.8281 7.46875H11.2188C11.2188 6.88021 11.2969 6.33854 11.4531 5.84375C11.6094 5.34896 11.8307 4.91927 12.1172 4.55469C12.4036 4.1849 12.7448 3.89844 13.1406 3.69531C13.5417 3.49219 13.9844 3.39062 14.4688 3.39062C14.8854 3.39062 15.263 3.45052 15.6016 3.57031C15.9453 3.6849 16.2396 3.86979 16.4844 4.125C16.7292 4.38021 16.9167 4.71354 17.0469 5.125C17.1823 5.53125 17.25 6.02604 17.25 6.60938V12H15.1719V6.59375C15.1719 6.20312 15.1146 5.89583 15 5.67188C14.8854 5.44271 14.7214 5.27865 14.5078 5.17969C14.2995 5.08073 14.0417 5.03125 13.7344 5.03125C13.401 5.03125 13.1146 5.09635 12.875 5.22656C12.6354 5.35156 12.4375 5.52604 12.2812 5.75C12.1302 5.97396 12.0156 6.23177 11.9375 6.52344C11.8646 6.8151 11.8281 7.13021 11.8281 7.46875ZM23.7266 10.2031V6.30469C23.7266 6.01823 23.6771 5.77083 23.5781 5.5625C23.4792 5.35417 23.3281 5.19271 23.125 5.07812C22.9219 4.96354 22.6641 4.90625 22.3516 4.90625C22.0755 4.90625 21.8333 4.95312 21.625 5.04688C21.4219 5.14062 21.2656 5.27344 21.1562 5.44531C21.0469 5.61198 20.9922 5.80469 20.9922 6.02344H18.9219C18.9219 5.67448 19.0052 5.34375 19.1719 5.03125C19.3385 4.71354 19.5755 4.43229 19.8828 4.1875C20.1953 3.9375 20.5677 3.74219 21 3.60156C21.4375 3.46094 21.9271 3.39062 22.4688 3.39062C23.1094 3.39062 23.6797 3.5 24.1797 3.71875C24.6849 3.93229 25.0807 4.25521 25.3672 4.6875C25.6589 5.11979 25.8047 5.66406 25.8047 6.32031V10.0078C25.8047 10.4297 25.8307 10.7917 25.8828 11.0938C25.9401 11.3906 26.0234 11.6484 26.1328 11.8672V12H24.0312C23.9323 11.7865 23.8568 11.5156 23.8047 11.1875C23.7526 10.8542 23.7266 10.526 23.7266 10.2031ZM24.0156 6.85156L24.0312 8.07812H22.7266C22.4036 8.07812 22.1198 8.11198 21.875 8.17969C21.6302 8.24219 21.4297 8.33594 21.2734 8.46094C21.1172 8.58073 21 8.72656 20.9219 8.89844C20.8438 9.0651 20.8047 9.25521 20.8047 9.46875C20.8047 9.67708 20.8516 9.86458 20.9453 10.0312C21.0443 10.1979 21.1849 10.3307 21.3672 10.4297C21.5547 10.5234 21.7734 10.5703 22.0234 10.5703C22.388 10.5703 22.7057 10.4974 22.9766 10.3516C23.2474 10.2005 23.4583 10.0182 23.6094 9.80469C23.7604 9.59115 23.8411 9.38802 23.8516 9.19531L24.4453 10.0859C24.3724 10.2995 24.263 10.526 24.1172 10.7656C23.9714 11.0052 23.7839 11.2292 23.5547 11.4375C23.3255 11.6458 23.0495 11.8177 22.7266 11.9531C22.4036 12.0885 22.0286 12.1562 21.6016 12.1562C21.0547 12.1562 20.5651 12.0469 20.1328 11.8281C19.7005 11.6094 19.3594 11.3099 19.1094 10.9297C18.8594 10.5495 18.7344 10.1172 18.7344 9.63281C18.7344 9.1849 18.8177 8.78906 18.9844 8.44531C19.151 8.10156 19.3984 7.8125 19.7266 7.57812C20.0547 7.33854 20.4609 7.15885 20.9453 7.03906C21.4349 6.91406 21.9948 6.85156 22.625 6.85156H24.0156ZM29.7266 5.27344V12H27.6641V3.54688H29.6172L29.7266 5.27344ZM32.2969 3.49219L32.2656 5.41406C32.151 5.39323 32.0208 5.3776 31.875 5.36719C31.7344 5.35677 31.6016 5.35156 31.4766 5.35156C31.1589 5.35156 30.8802 5.39583 30.6406 5.48438C30.401 5.56771 30.2005 5.6901 30.0391 5.85156C29.8828 6.01302 29.763 6.21094 29.6797 6.44531C29.5964 6.67448 29.5495 6.9349 29.5391 7.22656L29.0938 7.17188C29.0938 6.63542 29.1484 6.13802 29.2578 5.67969C29.3672 5.22135 29.526 4.82031 29.7344 4.47656C29.9427 4.13281 30.2031 3.86719 30.5156 3.67969C30.8333 3.48698 31.1979 3.39062 31.6094 3.39062C31.724 3.39062 31.8464 3.40104 31.9766 3.42188C32.112 3.4375 32.2188 3.46094 32.2969 3.49219ZM37.0703 12.1562C36.4297 12.1562 35.8542 12.0521 35.3438 11.8438C34.8333 11.6354 34.3984 11.3464 34.0391 10.9766C33.6849 10.6016 33.4115 10.1667 33.2188 9.67188C33.0312 9.17188 32.9375 8.63542 32.9375 8.0625V7.75C32.9375 7.09896 33.0312 6.50781 33.2188 5.97656C33.4062 5.4401 33.6719 4.97917 34.0156 4.59375C34.3594 4.20833 34.7708 3.91146 35.25 3.70312C35.7292 3.49479 36.2578 3.39062 36.8359 3.39062C37.4349 3.39062 37.9635 3.49219 38.4219 3.69531C38.8802 3.89323 39.263 4.17448 39.5703 4.53906C39.8776 4.90365 40.1094 5.34115 40.2656 5.85156C40.4219 6.35677 40.5 6.91667 40.5 7.53125V8.39844H33.875V6.97656H38.4688V6.82031C38.4583 6.49219 38.3958 6.19271 38.2812 5.92188C38.1667 5.64583 37.9896 5.42708 37.75 5.26562C37.5104 5.09896 37.2005 5.01562 36.8203 5.01562C36.513 5.01562 36.2448 5.08333 36.0156 5.21875C35.7917 5.34896 35.6042 5.53646 35.4531 5.78125C35.3073 6.02083 35.1979 6.30729 35.125 6.64062C35.0521 6.97396 35.0156 7.34375 35.0156 7.75V8.0625C35.0156 8.41667 35.0625 8.74479 35.1562 9.04688C35.2552 9.34896 35.3984 9.61198 35.5859 9.83594C35.7786 10.0547 36.0078 10.2266 36.2734 10.3516C36.5443 10.4714 36.8516 10.5312 37.1953 10.5312C37.6276 10.5312 38.0182 10.4479 38.3672 10.2812C38.7214 10.1094 39.0286 9.85677 39.2891 9.52344L40.3281 10.6016C40.151 10.862 39.9115 11.112 39.6094 11.3516C39.3125 11.5911 38.9531 11.7865 38.5312 11.9375C38.1094 12.0833 37.6224 12.1562 37.0703 12.1562Z"/>
    </g>
</svg>