<svg
    height="160px"
    width="540px"
    viewBox="0 0 54 16"
    version="1.1"
    xmlns="http://www.w3.org/2000/svg"
>
    <defs>
        <linearGradient id="Gradient" x1="0.7" x2="0.8" y1="1.0" y2="0.8">
            <stop stop-color="white" offset="0%" stop-opacity="1.0"/>
            <stop stop-color="white" offset="100%" stop-opacity="0"/>
        </linearGradient>
        <radialGradient id="Gradient2" cx="0.9" cy="1.0" r="0.7" fx="0.9" fy="0.9" fr="0">
            <stop offset="30%" stop-color="white" stop-opacity="1.0"/>
            <stop offset="60%" stop-color="white" stop-opacity="0.45"/>
            <stop offset="100%" stop-color="white" stop-opacity="0"/>
        </radialGradient>
    </defs>
    <g transform="translate(0.5 2)">
        <path fill="white" d="M7.35999 9.04C7.35999 9.712 7.19466 10.2933 6.864 10.784C6.53333 11.2747 6.05333 11.6533 5.424 11.92C4.80533 12.1867 4.06399 12.32 3.19999 12.32C2.78399 12.32 2.38399 12.2933 1.99999 12.24C1.62666 12.1973 1.26933 12.128 0.927995 12.032C0.597328 11.936 0.287995 11.8187 -5.36442e-06 11.68V9.76C0.479995 9.97333 1.00799 10.1707 1.58399 10.352C2.15999 10.5227 2.74666 10.608 3.34399 10.608C3.80266 10.608 4.17599 10.5493 4.46399 10.432C4.76266 10.304 4.98133 10.1333 5.12 9.92C5.25866 9.696 5.32799 9.44 5.32799 9.152C5.32799 8.832 5.23733 8.56 5.05599 8.336C4.87466 8.112 4.60799 7.904 4.25599 7.712C3.90399 7.52 3.46666 7.31733 2.94399 7.104C2.59199 6.95467 2.24533 6.78933 1.90399 6.608C1.57333 6.416 1.27466 6.18667 1.00799 5.92C0.741328 5.65333 0.527995 5.33867 0.367995 4.976C0.207995 4.61333 0.127995 4.18667 0.127995 3.696C0.127995 3.04533 0.282661 2.48533 0.591995 2.016C0.911995 1.54667 1.35466 1.18933 1.91999 0.943999C2.49599 0.698666 3.16266 0.575999 3.91999 0.575999C4.52799 0.575999 5.09866 0.639999 5.63199 0.768C6.16533 0.895999 6.69333 1.07733 7.21599 1.312L6.56 2.96C6.09066 2.75733 5.63733 2.59733 5.2 2.48C4.76266 2.36267 4.31466 2.304 3.85599 2.304C3.49333 2.304 3.18399 2.36267 2.92799 2.48C2.67199 2.58667 2.47999 2.74133 2.35199 2.944C2.22399 3.14667 2.15999 3.38133 2.15999 3.648C2.15999 3.95733 2.23999 4.21867 2.39999 4.432C2.55999 4.64533 2.80533 4.848 3.13599 5.04C3.47733 5.22133 3.91466 5.42933 4.44799 5.664C5.06666 5.93067 5.58933 6.208 6.016 6.496C6.44266 6.784 6.77333 7.13067 7.008 7.536C7.24266 7.94133 7.35999 8.44267 7.35999 9.04Z"/>
    </g>
    <g transform="translate(4.5 2.0) scale(0.8)">
        <g stroke="black" stroke-width="0.00">
            <path fill="url(#Gradient)" d="M7.062 16.35 c -2 -4 -2 -6 1 -10" />
            <path fill="white" d="M7.012 16.16 A 25 25 0 0 1 7.052 7.1 h 1 A 15 15 0 0 0 8.92 15.61 Z"/>
            <path fill="#FFFFFF" d="M7 7.8 A 4 4 0 1 1 16.5 7.8 A 3 3 0 0 1 7.3 7.85Z"/>
            <path fill="url(#Gradient2)"
                  d="M7.14 6.8
               c -0.8 -2 -1.2 -4 -1 -6
               c 0.05 -0.5 1 -0.6 1.2 -0.6
               c 0.2 0 0.2 0.2 0.2 0.5
               c 0 0.1 0 4.0 0.2 4.8
               Z"
            />
            <circle fill="#FFFFFF" cx="8" cy="16" r="1"/>
            <circle fill="#E9573F" cx="8" cy="16" r="0.85"/>

        </g>
        <g transform="translate(8 4) scale(0.015)">
            <g transform="translate(1 1)">
                <path fill="#80d6fa" d="M270.36,441.027c8.533-8.533,0-25.6-8.533-34.133c-8.533-8.533-37.547,22.187-25.6,34.133 C244.76,449.56,261.827,449.56,270.36,441.027L270.36,441.027z M395.8,319.853c8.533-25.6,42.667-34.133,25.6-51.2 c-17.067-17.067-51.2,0-59.733,0c-18.773,0-25.6,34.133-42.667,25.6c-17.067-8.533-34.133,8.533-17.067,17.067 c17.067,8.533,34.133,17.067,42.667,25.6S387.267,345.453,395.8,319.853L395.8,319.853z M495.64,217.453 c1.707,11.093,2.56,22.187,2.56,34.133c0,136.533-110.933,247.467-247.467,247.467c-33.28-20.48-78.507-53.76-59.733-98.133 c25.6-59.733,0-76.8-8.533-85.333c-8.533-8.533-25.6-8.533-17.067-34.133S191,264.387,191,221.72s-68.267-34.133-59.733-8.533 c8.533,25.6-8.533,59.733-42.667,85.333S45.934,255.853,63,238.787c11.947-11.947-26.453-17.92-58.027-16.213l5.12-30.72 C36.547,84.333,134.68,4.12,250.734,4.12c20.48,0,40.96,2.56,60.587,7.68c-5.12,23.893,11.947,34.133,11.947,42.667 s0,51.2-17.067,51.2c-17.067,0-59.733,25.6-42.667,51.2c17.067,25.6,25.6,59.733,42.667,51.2 c17.067-8.533,30.72-60.587,42.667-59.733c29.867,1.707,29.867,44.373,46.933,52.907c11.947,5.973,62.293,0,93.867-13.653 L495.64,217.453z"/>
                <path fill="#12bc45" d="M250.734,499.053c-30.72,0-59.733-7.68-59.733-7.68C83.48,464.92,3.267,367.64,3.267,251.587 c0-10.24,0.853-18.773,1.707-29.013c31.573-1.707,69.12,4.267,58.027,16.213c-17.067,17.067-8.533,85.333,25.6,59.733 s51.2-59.733,42.667-85.333c-8.533-25.6,59.733-34.133,59.733,8.533s-17.067,34.133-25.6,59.733s8.533,25.6,17.067,34.133 C191,324.12,216.6,341.187,191,400.92C172.227,445.294,217.454,478.574,250.734,499.053z M421.4,268.653 c17.067,17.067-17.067,25.6-25.6,51.2c-8.533,25.6-42.667,25.6-51.2,17.067s-25.6-17.067-42.667-25.6 c-17.067-8.533,0-25.6,17.067-17.067c17.067,8.533,23.893-25.6,42.667-25.6C370.2,268.653,404.334,251.587,421.4,268.653z M261.827,406.894c8.533,8.533,17.067,25.6,8.533,34.133c-8.533,8.533-25.6,8.533-34.133,0 C224.28,429.08,253.294,398.36,261.827,406.894z M489.667,186.733c-31.573,13.653-81.92,19.627-93.867,13.653 c-17.067-8.533-17.067-51.2-46.933-52.907c-11.947-0.853-25.6,51.2-42.667,59.733c-17.067,8.533-25.6-25.6-42.667-51.2 s25.6-51.2,42.667-51.2c17.067,0,17.067-42.667,17.067-51.2S306.2,34.84,312.174,10.947c15.36,4.267,33.28,11.093,33.28,11.093 C415.427,51.053,469.187,112.494,489.667,186.733z"/>
            </g>
            <path fill="#000000" d="M251.734,504.32c-0.853,0-1.707,0-2.56-0.853c-24.747-15.36-82.773-52.907-61.44-103.253 c22.187-52.053,4.267-69.12-5.12-78.507c-0.853-0.853-1.707-1.707-2.56-2.56c-1.707-1.707-4.267-3.413-6.827-4.267 c-7.68-5.12-18.773-11.093-11.093-34.133c3.413-11.093,8.533-16.213,12.8-20.48c6.827-6.827,11.947-12.8,11.947-37.547 c0-13.653-7.68-19.627-14.507-23.04c-11.947-5.12-28.16-2.56-34.133,3.413c-3.413,2.56-4.267,5.973-2.56,9.387 c9.387,27.307-8.533,63.147-44.373,90.453C74.24,315.733,64,307.2,60.587,302.08c-12.8-15.36-13.653-52.907,0-65.707 c0.853-0.853,0.853-0.853,0.853-0.853c-1.707-3.413-23.893-8.533-52.053-7.68c-0.853,8.533-0.853,16.213-0.853,24.747 c0,111.787,75.947,209.067,184.32,236.373c2.56,0.853,3.413,2.56,3.413,5.12c-0.853,2.56-2.56,3.413-5.12,3.413 C78.507,469.333,0,369.493,0,253.44c0-10.24,0.853-19.627,1.707-29.013v-0.853c0-0.853,0.853-0.853,0.853-1.707 c0.853-0.853,0.853-0.853,1.707-0.853H5.12c16.213-0.853,58.027,0,64,12.8c0.853,1.707,1.707,5.973-2.56,10.24 c-10.24,10.24-9.387,42.667,0.853,53.76c1.707,1.707,6.827,8.533,19.627-0.853c32.427-24.747,49.493-57.173,40.96-80.213 c-2.56-6.827-0.853-13.653,5.12-18.773c10.24-8.533,29.013-11.093,43.52-5.12c12.8,5.12,19.627,16.213,19.627,30.72 c0,28.16-7.68,35.84-14.507,43.52c-4.267,4.267-8.533,8.533-11.093,17.92c-5.12,16.213,0,18.773,7.68,23.893 c2.56,1.707,5.973,3.413,8.533,5.973c0.853,0.853,1.707,0.853,1.707,1.707c10.24,9.387,32.427,29.867,7.68,87.893 c-16.213,38.4,19.627,68.267,57.173,92.16c133.12-0.853,242.347-109.227,242.347-243.2c0-11.093-0.853-23.04-2.56-33.28 c0-2.56,1.707-4.267,3.413-5.12c2.56,0,4.267,1.707,5.12,3.413c1.707,11.093,2.56,23.04,2.56,34.987 C503.467,391.68,390.827,504.32,251.734,504.32z M254.294,452.267c-7.68,0-15.36-2.56-20.48-7.68 c-8.533-8.533-2.56-23.893,7.68-33.28c3.413-3.413,7.68-6.827,11.093-7.68c6.827-2.56,11.093,0,12.8,1.707 c10.24,10.24,19.627,29.013,8.533,40.107C269.654,449.707,261.974,452.267,254.294,452.267z M259.414,410.453 c-1.707,0-5.973,1.707-11.093,6.827c-4.267,4.267-6.827,8.533-8.533,12.8c-1.707,4.267-0.853,6.827,0.853,8.533 c6.827,6.827,21.333,6.827,28.16,0c5.973-5.973-0.853-20.48-8.533-28.16H259.414z M362.667,347.307 c-8.533,0-16.213-2.56-20.48-5.973c-7.68-7.68-24.747-16.213-41.813-24.747c-4.267-1.707-6.827-5.12-8.533-7.68 c-1.707-3.413-1.707-6.827,0-10.24c4.267-7.68,17.067-12.8,29.013-6.827c5.12,2.56,9.387-0.853,16.213-9.387 c5.973-7.68,13.653-16.213,23.893-16.213c1.707,0,5.12-0.853,9.387-2.56c14.507-4.267,39.253-11.093,53.76,3.413 c4.267,4.267,5.973,8.533,5.973,12.8c0,7.68-5.973,12.8-12.8,19.627c-6.827,5.973-14.507,13.653-17.067,23.04 c-4.267,11.947-13.653,20.48-27.307,23.893C370.347,347.307,366.08,347.307,362.667,347.307z M310.614,296.96 c-5.12,0-8.533,2.56-10.24,5.12c-0.853,0.853-0.853,1.707,0,2.56c0.853,1.707,2.56,2.56,4.267,3.413 c17.92,8.533,34.987,17.067,43.52,26.453c3.413,3.413,13.653,5.12,23.04,2.56c5.973-1.707,17.067-5.973,21.333-17.92 c4.267-11.947,12.8-20.48,19.627-26.453c5.12-5.12,10.24-10.24,10.24-13.653c0-1.707-0.853-4.267-3.413-5.973 c-11.093-11.093-31.573-5.12-45.227-1.707c-5.12,1.707-9.387,2.56-11.947,2.56c-6.827,0-11.947,5.973-17.92,12.8 c-6.827,7.68-14.507,17.92-26.453,11.947C315.734,297.813,313.174,296.96,310.614,296.96z M301.227,214.187 c-11.947,0-19.627-15.36-27.307-31.573c-4.267-7.68-8.533-16.213-12.8-23.04c-5.973-8.533-5.973-18.773-0.853-28.16 c9.387-17.067,34.987-29.867,46.933-29.867c5.973,0,12.8-11.947,12.8-46.933c0-1.707-1.707-4.267-3.413-7.68 c-4.267-6.827-10.24-17.067-8.533-31.573c-17.92-4.267-36.693-6.827-55.467-6.827C140.8,8.533,43.52,84.48,16.214,192.853 c-0.853,2.56-2.56,3.413-5.12,3.413c-2.56-0.853-3.413-2.56-3.413-5.12C35.84,78.507,135.68,0,251.734,0 c20.48,0,41.813,2.56,61.44,7.68c2.56,0.853,3.413,2.56,3.413,5.12c-3.413,13.653,2.56,22.187,6.827,29.867 c2.56,4.267,5.12,7.68,5.12,11.947c0,36.693-6.827,55.467-21.333,55.467c-10.24,0-32.427,11.093-40.107,25.6 c-3.413,6.827-3.413,12.8,0.853,19.627c5.12,7.68,9.387,16.213,13.653,23.893c10.24,20.48,16.213,29.013,23.893,25.6 c7.68-3.413,15.36-19.627,21.333-31.573c7.68-16.213,14.507-28.16,23.04-28.16l0,0c20.48,0.853,29.013,18.773,35.84,33.28 c4.267,8.533,7.68,17.067,13.653,19.627c9.387,5.12,54.613,0,87.04-11.947C465.92,115.2,413.014,56.32,344.747,28.16 c-2.56-0.853-3.413-3.413-2.56-5.973c0.853-2.56,3.413-3.413,5.973-2.56c72.533,29.867,127.147,92.16,147.627,167.253v0.853 c0,0.853,0,0.853,0,1.707c0,0.853-0.853,0.853-0.853,1.707l0,0l0,0L494.08,192c-31.573,13.653-83.627,20.48-97.28,13.653 c-8.533-4.267-12.8-13.653-17.067-23.893c-5.973-13.653-12.8-27.307-28.16-28.16c-3.413,0-11.093,15.36-15.36,23.893 c-7.68,15.36-15.36,30.72-25.6,35.84C306.347,213.333,303.787,214.187,301.227,214.187z"/>
        </g>
    </g>
    <g transform="translate(10 2)">
        <path fill="white" d="M11.3409 2.896C11.3409 3.23733 11.3249 3.57333 11.2929 3.904C11.2715 4.224 11.2502 4.464 11.2289 4.624H11.3569C11.5382 4.32533 11.7622 4.08533 12.0289 3.904C12.2955 3.712 12.5889 3.568 12.9089 3.472C13.2395 3.376 13.5809 3.328 13.9329 3.328C14.5835 3.328 15.1435 3.44 15.6129 3.664C16.0822 3.888 16.4395 4.23467 16.6849 4.704C16.9409 5.16267 17.0689 5.76533 17.0689 6.512V12.16H15.0529V6.912C15.0529 6.25067 14.9249 5.76 14.6689 5.44C14.4129 5.12 14.0075 4.96 13.4529 4.96C12.9195 4.96 12.4982 5.07733 12.1889 5.312C11.8795 5.536 11.6609 5.872 11.5329 6.32C11.4049 6.75733 11.3409 7.296 11.3409 7.936V12.16H9.32487V-9.53674e-07H11.3409V2.896ZM23.0465 3.328C24.1665 3.328 25.0145 3.57333 25.5905 4.064C26.1772 4.544 26.4705 5.30133 26.4705 6.336V12.16H25.0465L24.6465 10.96H24.5825C24.3372 11.2693 24.0812 11.5307 23.8145 11.744C23.5585 11.9467 23.2598 12.0907 22.9185 12.176C22.5878 12.272 22.1825 12.32 21.7025 12.32C21.1905 12.32 20.7265 12.224 20.3105 12.032C19.9052 11.84 19.5852 11.5467 19.3505 11.152C19.1158 10.7467 18.9985 10.24 18.9985 9.632C18.9985 8.736 19.3238 8.064 19.9745 7.616C20.6358 7.15733 21.6332 6.90667 22.9665 6.864L24.4705 6.816V6.384C24.4705 5.82933 24.3372 5.43467 24.0705 5.2C23.8038 4.96533 23.4305 4.848 22.9505 4.848C22.5132 4.848 22.0918 4.912 21.6865 5.04C21.2812 5.168 20.8865 5.31733 20.5025 5.488L19.8625 4.08C20.2892 3.856 20.7745 3.67467 21.3185 3.536C21.8732 3.39733 22.4492 3.328 23.0465 3.328ZM23.4145 8.096C22.5292 8.128 21.9158 8.28267 21.5745 8.56C21.2332 8.82667 21.0625 9.18933 21.0625 9.648C21.0625 10.0533 21.1852 10.3467 21.4305 10.528C21.6758 10.7093 21.9905 10.8 22.3745 10.8C22.9612 10.8 23.4572 10.6347 23.8625 10.304C24.2678 9.96267 24.4705 9.46133 24.4705 8.8V8.064L23.4145 8.096ZM33.5407 3.328C33.6687 3.328 33.8181 3.33333 33.9887 3.344C34.1594 3.35467 34.3034 3.376 34.4207 3.408L34.2447 5.28C34.1487 5.25867 34.0207 5.24267 33.8607 5.232C33.7114 5.21067 33.5781 5.2 33.4607 5.2C33.1407 5.2 32.8314 5.25333 32.5327 5.36C32.2447 5.456 31.9834 5.60533 31.7487 5.808C31.5247 6 31.3434 6.25067 31.2047 6.56C31.0767 6.86933 31.0127 7.23733 31.0127 7.664V12.16H28.9967V3.488H30.5487L30.8367 4.992H30.9327C31.1034 4.68267 31.3167 4.40533 31.5727 4.16C31.8287 3.904 32.1221 3.70133 32.4527 3.552C32.7941 3.40267 33.1567 3.328 33.5407 3.328ZM39.2035 3.328C39.9822 3.328 40.6488 3.488 41.2035 3.808C41.7688 4.11733 42.2062 4.56533 42.5155 5.152C42.8248 5.728 42.9795 6.432 42.9795 7.264V8.288H37.2515C37.2728 9.07733 37.4915 9.69067 37.9075 10.128C38.3235 10.5547 38.8995 10.768 39.6355 10.768C40.2008 10.768 40.7022 10.7147 41.1395 10.608C41.5875 10.4907 42.0462 10.3253 42.5155 10.112V11.728C42.0888 11.9307 41.6462 12.08 41.1875 12.176C40.7288 12.272 40.1795 12.32 39.5395 12.32C38.6968 12.32 37.9448 12.16 37.2835 11.84C36.6328 11.5093 36.1208 11.0133 35.7475 10.352C35.3848 9.69067 35.2035 8.86933 35.2035 7.888C35.2035 6.896 35.3688 6.064 35.6995 5.392C36.0408 4.70933 36.5102 4.19733 37.1075 3.856C37.7048 3.504 38.4035 3.328 39.2035 3.328ZM39.2035 4.816C38.6702 4.816 38.2328 4.992 37.8915 5.344C37.5608 5.68533 37.3635 6.19733 37.2995 6.88H41.0275C41.0275 6.47467 40.9582 6.11733 40.8195 5.808C40.6915 5.49867 40.4942 5.25867 40.2275 5.088C39.9608 4.90667 39.6195 4.816 39.2035 4.816Z"/>
    </g>
</svg>