<svg
    height="170px"
    width="510px"
    viewBox="0 0.5 51 17"
    version="1.1"
    xmlns="http://www.w3.org/2000/svg"
>
    <g transform="translate(0.6 1)">
        <path fill="white" d="M7.35999 9.04C7.35999 9.712 7.19466 10.2933 6.86399 10.784C6.53332 11.2747 6.05332 11.6533 5.42399 11.92C4.80532 12.1867 4.06399 12.32 3.19999 12.32C2.78399 12.32 2.38399 12.2933 1.99999 12.24C1.62666 12.1973 1.26932 12.128 0.927989 12.032C0.597322 11.936 0.287989 11.8187 -1.10865e-05 11.68V9.76C0.479989 9.97333 1.00799 10.1707 1.58399 10.352C2.15999 10.5227 2.74666 10.608 3.34399 10.608C3.80266 10.608 4.17599 10.5493 4.46399 10.432C4.76266 10.304 4.98132 10.1333 5.11999 9.92C5.25866 9.696 5.32799 9.44 5.32799 9.152C5.32799 8.832 5.23732 8.56 5.05599 8.336C4.87466 8.112 4.60799 7.904 4.25599 7.712C3.90399 7.52 3.46666 7.31733 2.94399 7.104C2.59199 6.95467 2.24532 6.78933 1.90399 6.608C1.57332 6.416 1.27466 6.18667 1.00799 5.92C0.741322 5.65333 0.527989 5.33867 0.367989 4.976C0.207989 4.61333 0.127989 4.18667 0.127989 3.696C0.127989 3.04533 0.282656 2.48533 0.591989 2.016C0.911989 1.54667 1.35466 1.18933 1.91999 0.943999C2.49599 0.698666 3.16266 0.575999 3.91999 0.575999C4.52799 0.575999 5.09866 0.639999 5.63199 0.768C6.16532 0.895999 6.69332 1.07733 7.21599 1.312L6.55999 2.96C6.09066 2.75733 5.63732 2.59733 5.19999 2.48C4.76266 2.36267 4.31466 2.304 3.85599 2.304C3.49332 2.304 3.18399 2.36267 2.92799 2.48C2.67199 2.58667 2.47999 2.74133 2.35199 2.944C2.22399 3.14667 2.15999 3.38133 2.15999 3.648C2.15999 3.95733 2.23999 4.21867 2.39999 4.432C2.55999 4.64533 2.80532 4.848 3.13599 5.04C3.47732 5.22133 3.91466 5.42933 4.44799 5.664C5.06666 5.93067 5.58932 6.208 6.01599 6.496C6.44266 6.784 6.77332 7.13067 7.00799 7.536C7.24266 7.94133 7.35999 8.44267 7.35999 9.04Z"/>
    </g>
    <g transform="translate(3 1) rotate(10)">
        <path stroke-width="1.6" stroke="white"
              stroke-linecap="round"
              stroke-linejoin="round"
              d="M8.2 2.7 v 11.6"
        />
        <circle fill="#E9573F" cx="8.2" cy="14.3" r="0.6"/>
        <circle cx="12" cy="6" r="4.6" fill="white"/>
    </g>
    <g transform="translate(10.2 5.45) scale(0.014)">
        <g transform="translate(1 1)">
            <path fill="#80d6fa" d="M270.36,441.027c8.533-8.533,0-25.6-8.533-34.133c-8.533-8.533-37.547,22.187-25.6,34.133 C244.76,449.56,261.827,449.56,270.36,441.027L270.36,441.027z M395.8,319.853c8.533-25.6,42.667-34.133,25.6-51.2 c-17.067-17.067-51.2,0-59.733,0c-18.773,0-25.6,34.133-42.667,25.6c-17.067-8.533-34.133,8.533-17.067,17.067 c17.067,8.533,34.133,17.067,42.667,25.6S387.267,345.453,395.8,319.853L395.8,319.853z M495.64,217.453 c1.707,11.093,2.56,22.187,2.56,34.133c0,136.533-110.933,247.467-247.467,247.467c-33.28-20.48-78.507-53.76-59.733-98.133 c25.6-59.733,0-76.8-8.533-85.333c-8.533-8.533-25.6-8.533-17.067-34.133S191,264.387,191,221.72s-68.267-34.133-59.733-8.533 c8.533,25.6-8.533,59.733-42.667,85.333S45.934,255.853,63,238.787c11.947-11.947-26.453-17.92-58.027-16.213l5.12-30.72 C36.547,84.333,134.68,4.12,250.734,4.12c20.48,0,40.96,2.56,60.587,7.68c-5.12,23.893,11.947,34.133,11.947,42.667 s0,51.2-17.067,51.2c-17.067,0-59.733,25.6-42.667,51.2c17.067,25.6,25.6,59.733,42.667,51.2 c17.067-8.533,30.72-60.587,42.667-59.733c29.867,1.707,29.867,44.373,46.933,52.907c11.947,5.973,62.293,0,93.867-13.653 L495.64,217.453z"/>
            <path fill="#12bc45" d="M250.734,499.053c-30.72,0-59.733-7.68-59.733-7.68C83.48,464.92,3.267,367.64,3.267,251.587 c0-10.24,0.853-18.773,1.707-29.013c31.573-1.707,69.12,4.267,58.027,16.213c-17.067,17.067-8.533,85.333,25.6,59.733 s51.2-59.733,42.667-85.333c-8.533-25.6,59.733-34.133,59.733,8.533s-17.067,34.133-25.6,59.733s8.533,25.6,17.067,34.133 C191,324.12,216.6,341.187,191,400.92C172.227,445.294,217.454,478.574,250.734,499.053z M421.4,268.653 c17.067,17.067-17.067,25.6-25.6,51.2c-8.533,25.6-42.667,25.6-51.2,17.067s-25.6-17.067-42.667-25.6 c-17.067-8.533,0-25.6,17.067-17.067c17.067,8.533,23.893-25.6,42.667-25.6C370.2,268.653,404.334,251.587,421.4,268.653z M261.827,406.894c8.533,8.533,17.067,25.6,8.533,34.133c-8.533,8.533-25.6,8.533-34.133,0 C224.28,429.08,253.294,398.36,261.827,406.894z M489.667,186.733c-31.573,13.653-81.92,19.627-93.867,13.653 c-17.067-8.533-17.067-51.2-46.933-52.907c-11.947-0.853-25.6,51.2-42.667,59.733c-17.067,8.533-25.6-25.6-42.667-51.2 s25.6-51.2,42.667-51.2c17.067,0,17.067-42.667,17.067-51.2S306.2,34.84,312.174,10.947c15.36,4.267,33.28,11.093,33.28,11.093 C415.427,51.053,469.187,112.494,489.667,186.733z"/>
        </g>
        <path fill="#000000" d="M251.734,504.32c-0.853,0-1.707,0-2.56-0.853c-24.747-15.36-82.773-52.907-61.44-103.253 c22.187-52.053,4.267-69.12-5.12-78.507c-0.853-0.853-1.707-1.707-2.56-2.56c-1.707-1.707-4.267-3.413-6.827-4.267 c-7.68-5.12-18.773-11.093-11.093-34.133c3.413-11.093,8.533-16.213,12.8-20.48c6.827-6.827,11.947-12.8,11.947-37.547 c0-13.653-7.68-19.627-14.507-23.04c-11.947-5.12-28.16-2.56-34.133,3.413c-3.413,2.56-4.267,5.973-2.56,9.387 c9.387,27.307-8.533,63.147-44.373,90.453C74.24,315.733,64,307.2,60.587,302.08c-12.8-15.36-13.653-52.907,0-65.707 c0.853-0.853,0.853-0.853,0.853-0.853c-1.707-3.413-23.893-8.533-52.053-7.68c-0.853,8.533-0.853,16.213-0.853,24.747 c0,111.787,75.947,209.067,184.32,236.373c2.56,0.853,3.413,2.56,3.413,5.12c-0.853,2.56-2.56,3.413-5.12,3.413 C78.507,469.333,0,369.493,0,253.44c0-10.24,0.853-19.627,1.707-29.013v-0.853c0-0.853,0.853-0.853,0.853-1.707 c0.853-0.853,0.853-0.853,1.707-0.853H5.12c16.213-0.853,58.027,0,64,12.8c0.853,1.707,1.707,5.973-2.56,10.24 c-10.24,10.24-9.387,42.667,0.853,53.76c1.707,1.707,6.827,8.533,19.627-0.853c32.427-24.747,49.493-57.173,40.96-80.213 c-2.56-6.827-0.853-13.653,5.12-18.773c10.24-8.533,29.013-11.093,43.52-5.12c12.8,5.12,19.627,16.213,19.627,30.72 c0,28.16-7.68,35.84-14.507,43.52c-4.267,4.267-8.533,8.533-11.093,17.92c-5.12,16.213,0,18.773,7.68,23.893 c2.56,1.707,5.973,3.413,8.533,5.973c0.853,0.853,1.707,0.853,1.707,1.707c10.24,9.387,32.427,29.867,7.68,87.893 c-16.213,38.4,19.627,68.267,57.173,92.16c133.12-0.853,242.347-109.227,242.347-243.2c0-11.093-0.853-23.04-2.56-33.28 c0-2.56,1.707-4.267,3.413-5.12c2.56,0,4.267,1.707,5.12,3.413c1.707,11.093,2.56,23.04,2.56,34.987 C503.467,391.68,390.827,504.32,251.734,504.32z M254.294,452.267c-7.68,0-15.36-2.56-20.48-7.68 c-8.533-8.533-2.56-23.893,7.68-33.28c3.413-3.413,7.68-6.827,11.093-7.68c6.827-2.56,11.093,0,12.8,1.707 c10.24,10.24,19.627,29.013,8.533,40.107C269.654,449.707,261.974,452.267,254.294,452.267z M259.414,410.453 c-1.707,0-5.973,1.707-11.093,6.827c-4.267,4.267-6.827,8.533-8.533,12.8c-1.707,4.267-0.853,6.827,0.853,8.533 c6.827,6.827,21.333,6.827,28.16,0c5.973-5.973-0.853-20.48-8.533-28.16H259.414z M362.667,347.307 c-8.533,0-16.213-2.56-20.48-5.973c-7.68-7.68-24.747-16.213-41.813-24.747c-4.267-1.707-6.827-5.12-8.533-7.68 c-1.707-3.413-1.707-6.827,0-10.24c4.267-7.68,17.067-12.8,29.013-6.827c5.12,2.56,9.387-0.853,16.213-9.387 c5.973-7.68,13.653-16.213,23.893-16.213c1.707,0,5.12-0.853,9.387-2.56c14.507-4.267,39.253-11.093,53.76,3.413 c4.267,4.267,5.973,8.533,5.973,12.8c0,7.68-5.973,12.8-12.8,19.627c-6.827,5.973-14.507,13.653-17.067,23.04 c-4.267,11.947-13.653,20.48-27.307,23.893C370.347,347.307,366.08,347.307,362.667,347.307z M310.614,296.96 c-5.12,0-8.533,2.56-10.24,5.12c-0.853,0.853-0.853,1.707,0,2.56c0.853,1.707,2.56,2.56,4.267,3.413 c17.92,8.533,34.987,17.067,43.52,26.453c3.413,3.413,13.653,5.12,23.04,2.56c5.973-1.707,17.067-5.973,21.333-17.92 c4.267-11.947,12.8-20.48,19.627-26.453c5.12-5.12,10.24-10.24,10.24-13.653c0-1.707-0.853-4.267-3.413-5.973 c-11.093-11.093-31.573-5.12-45.227-1.707c-5.12,1.707-9.387,2.56-11.947,2.56c-6.827,0-11.947,5.973-17.92,12.8 c-6.827,7.68-14.507,17.92-26.453,11.947C315.734,297.813,313.174,296.96,310.614,296.96z M301.227,214.187 c-11.947,0-19.627-15.36-27.307-31.573c-4.267-7.68-8.533-16.213-12.8-23.04c-5.973-8.533-5.973-18.773-0.853-28.16 c9.387-17.067,34.987-29.867,46.933-29.867c5.973,0,12.8-11.947,12.8-46.933c0-1.707-1.707-4.267-3.413-7.68 c-4.267-6.827-10.24-17.067-8.533-31.573c-17.92-4.267-36.693-6.827-55.467-6.827C140.8,8.533,43.52,84.48,16.214,192.853 c-0.853,2.56-2.56,3.413-5.12,3.413c-2.56-0.853-3.413-2.56-3.413-5.12C35.84,78.507,135.68,0,251.734,0 c20.48,0,41.813,2.56,61.44,7.68c2.56,0.853,3.413,2.56,3.413,5.12c-3.413,13.653,2.56,22.187,6.827,29.867 c2.56,4.267,5.12,7.68,5.12,11.947c0,36.693-6.827,55.467-21.333,55.467c-10.24,0-32.427,11.093-40.107,25.6 c-3.413,6.827-3.413,12.8,0.853,19.627c5.12,7.68,9.387,16.213,13.653,23.893c10.24,20.48,16.213,29.013,23.893,25.6 c7.68-3.413,15.36-19.627,21.333-31.573c7.68-16.213,14.507-28.16,23.04-28.16l0,0c20.48,0.853,29.013,18.773,35.84,33.28 c4.267,8.533,7.68,17.067,13.653,19.627c9.387,5.12,54.613,0,87.04-11.947C465.92,115.2,413.014,56.32,344.747,28.16 c-2.56-0.853-3.413-3.413-2.56-5.973c0.853-2.56,3.413-3.413,5.973-2.56c72.533,29.867,127.147,92.16,147.627,167.253v0.853 c0,0.853,0,0.853,0,1.707c0,0.853-0.853,0.853-0.853,1.707l0,0l0,0L494.08,192c-31.573,13.653-83.627,20.48-97.28,13.653 c-8.533-4.267-12.8-13.653-17.067-23.893c-5.973-13.653-12.8-27.307-28.16-28.16c-3.413,0-11.093,15.36-15.36,23.893 c-7.68,15.36-15.36,30.72-25.6,35.84C306.347,213.333,303.787,214.187,301.227,214.187z"/>
    </g>
    <g transform="translate(10.6 1)">
        <path fill="white" d="M10.5409 2.896C10.5409 3.23733 10.5249 3.57333 10.4929 3.904C10.4715 4.224 10.4502 4.464 10.4289 4.624H10.5569C10.7382 4.32533 10.9622 4.08533 11.2289 3.904C11.4955 3.712 11.7889 3.568 12.1089 3.472C12.4395 3.376 12.7809 3.328 13.1329 3.328C13.7835 3.328 14.3435 3.44 14.8129 3.664C15.2822 3.888 15.6395 4.23467 15.8849 4.704C16.1409 5.16267 16.2689 5.76533 16.2689 6.512V12.16H14.2529V6.912C14.2529 6.25067 14.1249 5.76 13.8689 5.44C13.6129 5.12 13.2075 4.96 12.6529 4.96C12.1195 4.96 11.6982 5.07733 11.3889 5.312C11.0795 5.536 10.8609 5.872 10.7329 6.32C10.6049 6.75733 10.5409 7.296 10.5409 7.936V12.16H8.52486V-9.53674e-07H10.5409V2.896ZM21.4465 3.328C22.5665 3.328 23.4145 3.57333 23.9905 4.064C24.5772 4.544 24.8705 5.30133 24.8705 6.336V12.16H23.4465L23.0465 10.96H22.9825C22.7372 11.2693 22.4812 11.5307 22.2145 11.744C21.9585 11.9467 21.6598 12.0907 21.3185 12.176C20.9878 12.272 20.5825 12.32 20.1025 12.32C19.5905 12.32 19.1265 12.224 18.7105 12.032C18.3052 11.84 17.9852 11.5467 17.7505 11.152C17.5158 10.7467 17.3985 10.24 17.3985 9.632C17.3985 8.736 17.7238 8.064 18.3745 7.616C19.0358 7.15733 20.0332 6.90667 21.3665 6.864L22.8705 6.816V6.384C22.8705 5.82933 22.7372 5.43467 22.4705 5.2C22.2038 4.96533 21.8305 4.848 21.3505 4.848C20.9132 4.848 20.4918 4.912 20.0865 5.04C19.6812 5.168 19.2865 5.31733 18.9025 5.488L18.2625 4.08C18.6892 3.856 19.1745 3.67467 19.7185 3.536C20.2732 3.39733 20.8492 3.328 21.4465 3.328ZM21.8145 8.096C20.9292 8.128 20.3158 8.28267 19.9745 8.56C19.6332 8.82667 19.4625 9.18933 19.4625 9.648C19.4625 10.0533 19.5852 10.3467 19.8305 10.528C20.0758 10.7093 20.3905 10.8 20.7745 10.8C21.3612 10.8 21.8572 10.6347 22.2625 10.304C22.6678 9.96267 22.8705 9.46133 22.8705 8.8V8.064L21.8145 8.096ZM31.1407 3.328C31.2687 3.328 31.4181 3.33333 31.5887 3.344C31.7594 3.35467 31.9034 3.376 32.0207 3.408L31.8447 5.28C31.7487 5.25867 31.6207 5.24267 31.4607 5.232C31.3114 5.21067 31.1781 5.2 31.0607 5.2C30.7407 5.2 30.4314 5.25333 30.1327 5.36C29.8447 5.456 29.5834 5.60533 29.3487 5.808C29.1247 6 28.9434 6.25067 28.8047 6.56C28.6767 6.86933 28.6127 7.23733 28.6127 7.664V12.16H26.5967V3.488H28.1487L28.4367 4.992H28.5327C28.7034 4.68267 28.9167 4.40533 29.1727 4.16C29.4287 3.904 29.7221 3.70133 30.0527 3.552C30.3941 3.40267 30.7567 3.328 31.1407 3.328ZM36.0035 3.328C36.7822 3.328 37.4488 3.488 38.0035 3.808C38.5688 4.11733 39.0062 4.56533 39.3155 5.152C39.6248 5.728 39.7795 6.432 39.7795 7.264V8.288H34.0515C34.0728 9.07733 34.2915 9.69067 34.7075 10.128C35.1235 10.5547 35.6995 10.768 36.4355 10.768C37.0008 10.768 37.5022 10.7147 37.9395 10.608C38.3875 10.4907 38.8462 10.3253 39.3155 10.112V11.728C38.8888 11.9307 38.4462 12.08 37.9875 12.176C37.5288 12.272 36.9795 12.32 36.3395 12.32C35.4968 12.32 34.7448 12.16 34.0835 11.84C33.4328 11.5093 32.9208 11.0133 32.5475 10.352C32.1848 9.69067 32.0035 8.86933 32.0035 7.888C32.0035 6.896 32.1688 6.064 32.4995 5.392C32.8408 4.70933 33.3102 4.19733 33.9075 3.856C34.5048 3.504 35.2035 3.328 36.0035 3.328ZM36.0035 4.816C35.4702 4.816 35.0328 4.992 34.6915 5.344C34.3608 5.68533 34.1635 6.19733 34.0995 6.88H37.8275C37.8275 6.47467 37.7582 6.11733 37.6195 5.808C37.4915 5.49867 37.2942 5.25867 37.0275 5.088C36.7608 4.90667 36.4195 4.816 36.0035 4.816Z"/>
    </g>
</svg>